<svg width="298" height="215" viewBox="0 0 298 215" fill="none" xmlns="http://www.w3.org/2000/svg">
<g clip-path="url(#clip0_2471_28063)">
<path d="M8.09418 213.816C8.09418 214.077 8.30403 214.287 8.56534 214.287H297.314C297.575 214.287 297.785 214.077 297.785 213.816C297.785 213.555 297.575 213.345 297.314 213.345H8.56534C8.30403 213.345 8.09418 213.555 8.09418 213.816Z" fill="#3F3D58"/>
<path d="M100.556 38.3866H7.94738C4.41567 38.3866 1.54121 35.5121 1.54121 31.9804C1.54121 28.4487 4.41567 25.5742 7.94738 25.5742H100.556C104.087 25.5742 106.962 28.4487 106.962 31.9804C106.962 35.5121 104.087 38.3866 100.556 38.3866ZM7.94738 26.3661C4.8512 26.3661 2.33308 28.8842 2.33308 31.9804C2.33308 35.0766 4.8512 37.5947 7.94738 37.5947H100.556C103.652 37.5947 106.17 35.0766 106.17 31.9804C106.17 28.8842 103.652 26.3661 100.556 26.3661H7.94738Z" fill="#E2E3E4"/>
<path d="M100.556 113.356H7.94737C4.52257 113.356 1.73917 110.572 1.73917 107.148C1.73917 103.723 4.52257 100.939 7.94737 100.939H100.556C103.98 100.939 106.764 103.723 106.764 107.148C106.764 110.572 103.98 113.356 100.556 113.356Z" fill="#F7931E"/>
<path d="M70.2077 13.1303H6.4232C2.99839 13.1303 0.214996 10.3469 0.214996 6.92207C0.214996 3.49726 2.99839 0.713867 6.4232 0.713867H70.2077C73.6325 0.713867 76.4159 3.49726 76.4159 6.92207C76.4159 10.3469 73.6325 13.1303 70.2077 13.1303Z" fill="#E2E3E4"/>
<path d="M100.556 63.4412H7.94738C4.41567 63.4412 1.54121 60.5668 1.54121 57.0351C1.54121 53.5034 4.41567 50.6289 7.94738 50.6289H100.556C104.087 50.6289 106.962 53.5034 106.962 57.0351C106.962 60.5668 104.087 63.4412 100.556 63.4412ZM7.94738 51.4208C4.8512 51.4208 2.33308 53.9389 2.33308 57.0351C2.33308 60.1313 4.8512 62.6494 7.94738 62.6494H100.556C103.652 62.6494 106.17 60.1313 106.17 57.0351C106.17 53.9389 103.652 51.4208 100.556 51.4208H7.94738Z" fill="#E2E3E4"/>
<path d="M100.556 88.4998H7.94738C4.41567 88.4998 1.54121 85.6254 1.54121 82.0937C1.54121 78.562 4.41567 75.6875 7.94738 75.6875H100.556C104.087 75.6875 106.962 78.562 106.962 82.0937C106.962 85.6254 104.087 88.4998 100.556 88.4998ZM7.94738 76.4794C4.8512 76.4794 2.33308 78.9975 2.33308 82.0937C2.33308 85.1898 4.8512 87.708 7.94738 87.708H100.556C103.652 87.708 106.17 85.1898 106.17 82.0937C106.17 78.9975 103.652 76.4794 100.556 76.4794H7.94738Z" fill="#E2E3E4"/>
<path d="M4.76418 20.9736H29.0348C29.6128 20.9736 30.084 21.4408 30.084 22.0229C30.084 22.6009 29.6128 23.0721 29.0348 23.0721H4.76418C4.18612 23.0721 3.71497 22.6049 3.71497 22.0229C3.71497 21.4448 4.18612 20.9736 4.76418 20.9736Z" fill="#E2E3E4"/>
<path d="M4.76418 46.6221H29.0348C29.6128 46.6221 30.084 47.0893 30.084 47.6673C30.084 48.2454 29.6128 48.7165 29.0348 48.7165H4.76418C4.18612 48.7165 3.71497 48.2493 3.71497 47.6713C3.71497 47.0932 4.18612 46.6221 4.76418 46.6221Z" fill="#E2E3E4"/>
<path d="M4.76418 72.2744H29.0348C29.6128 72.2744 30.084 72.7416 30.084 73.3236C30.084 73.9017 29.6128 74.3689 29.0348 74.3689H4.76418C4.18612 74.3689 3.71497 73.9017 3.71497 73.3197C3.71497 72.7416 4.18612 72.2744 4.76418 72.2744Z" fill="#E2E3E4"/>
<path d="M177.227 53.08L168.374 55.994V43.249H176.408L177.227 53.08Z" fill="#9F616A"/>
<path d="M169.471 46.7765C174.343 46.7765 178.292 42.827 178.292 37.9551C178.292 33.0832 174.343 29.1338 169.471 29.1338C164.599 29.1338 160.65 33.0832 160.65 37.9551C160.65 42.827 164.599 46.7765 169.471 46.7765Z" fill="#9F616A"/>
<path d="M171.894 37.08C170.417 37.0365 169.447 35.5438 168.873 34.1818C168.299 32.8198 167.709 31.2559 166.339 30.6937C165.219 30.2344 163.243 33.3424 162.36 32.5149C161.438 31.6518 162.336 27.2213 163.314 26.4255C164.292 25.6297 165.631 25.4753 166.89 25.4159C169.962 25.2734 173.054 25.5228 176.067 26.1523C177.932 26.5403 179.848 27.1263 181.195 28.4725C182.897 30.1829 183.333 32.7604 183.455 35.1716C183.582 37.6383 183.439 40.2198 182.24 42.3776C181.04 44.5354 178.53 46.1271 176.123 45.5767C175.881 44.2701 176.127 42.9279 176.222 41.5976C176.313 40.2712 176.218 38.838 175.406 37.7808C174.598 36.7237 172.864 36.304 171.922 37.2424" fill="#1C1F1F"/>
<path d="M182.747 40.1364C183.63 39.491 184.687 38.9486 185.772 39.0832C186.943 39.2257 187.937 40.1918 188.238 41.336C188.539 42.4803 188.203 43.7393 187.474 44.6737C186.749 45.6081 185.669 46.2258 184.528 46.5346C183.867 46.7128 183.143 46.788 182.513 46.5188C181.587 46.1189 181.084 44.935 181.448 43.9927" fill="#1C1F1F"/>
<path d="M148.989 123.136C148.399 126.034 149.48 128.682 151.396 129.051C153.313 129.419 155.344 127.364 155.93 124.466C156.179 123.31 156.139 122.114 155.815 120.974L163.112 75.5406L153.986 73.8223L150.462 119.948C149.714 120.883 149.211 121.975 148.989 123.139V123.136Z" fill="#9F616A"/>
<path d="M168.279 50.1455H162.051C157.648 50.8146 156.452 53.1625 155.451 57.5019C153.922 64.1219 151.97 72.9353 152.358 73.066C152.98 73.2719 163.583 78.2606 168.988 77.1203L168.279 50.1455Z" fill="#FBB03B"/>
<path d="M174.302 194.862H166.011V206.625H174.302V194.862Z" fill="#9F616A"/>
<path d="M157.938 213.744C157.066 213.744 156.29 213.725 155.704 213.669C153.503 213.467 151.401 211.84 150.344 210.89C149.868 210.462 149.718 209.781 149.963 209.195C150.142 208.775 150.494 208.459 150.934 208.336L156.754 206.673L166.177 200.314L166.284 200.504C166.323 200.576 167.25 202.243 167.559 203.367C167.677 203.795 167.646 204.151 167.468 204.428C167.345 204.618 167.171 204.729 167.032 204.792C167.202 204.971 167.737 205.335 169.384 205.596C171.787 205.976 172.294 203.486 172.314 203.383L172.33 203.3L172.401 203.252C173.545 202.516 174.25 202.179 174.491 202.251C174.642 202.294 174.895 202.373 175.58 209.156C175.648 209.369 176.127 210.929 175.802 212.422C175.45 214.045 168.354 213.487 166.933 213.36C166.894 213.364 161.58 213.744 157.942 213.744H157.938Z" fill="#1C1F1F"/>
<path d="M197.909 185.62L190.874 190.008L197.099 199.989L204.134 195.602L197.909 185.62Z" fill="#9F616A"/>
<path d="M188.567 212.133C187.593 212.133 186.698 212.015 186.061 211.904C185.435 211.793 184.944 211.294 184.841 210.668C184.77 210.217 184.9 209.762 185.209 209.425L189.268 204.935L193.9 194.554L194.09 194.657C194.161 194.697 195.828 195.619 196.687 196.411C197.016 196.712 197.178 197.033 197.17 197.361C197.166 197.591 197.079 197.773 196.992 197.904C197.23 197.967 197.875 197.991 199.411 197.341C201.652 196.395 200.765 194.012 200.726 193.913L200.694 193.833L200.73 193.758C201.312 192.527 201.728 191.87 201.973 191.802C202.127 191.759 202.381 191.691 206.55 197.088C206.72 197.231 207.952 198.303 208.466 199.741C209.025 201.305 202.709 204.587 201.439 205.228C201.399 205.26 194.791 210.063 192.075 211.429C190.998 211.971 189.723 212.137 188.563 212.137L188.567 212.133Z" fill="#1C1F1F"/>
<path d="M180.406 96.4932H157.193L155.087 118.087L164.304 197.875H176.154L171.415 151.793L190.637 193.397L201.169 186.025L186.159 147.184C186.159 147.184 191.52 113.348 187.308 104.919C183.095 96.4932 180.406 96.4932 180.406 96.4932Z" fill="#1C1F1F"/>
<path d="M191.956 97.8077H155.087L166.149 50.1455H182.212L191.956 97.8077Z" fill="#FBB03B"/>
<path d="M195.274 123.136C195.864 126.034 194.783 128.682 192.866 129.051C190.95 129.419 188.919 127.364 188.333 124.466C188.084 123.31 188.123 122.114 188.448 120.974L181.151 75.5406L190.277 73.8223L193.801 119.948C194.549 120.883 195.052 121.975 195.274 123.139V123.136Z" fill="#9F616A"/>
<path d="M175.984 50.1455H182.212C186.615 50.8146 187.81 53.1625 188.812 57.5019C190.34 64.1219 192.292 72.9353 191.904 73.066C191.283 73.2719 180.68 78.2606 175.275 77.1203L175.984 50.1455Z" fill="#FBB03B"/>
</g>
<defs>
<clipPath id="clip0_2471_28063">
<rect width="297.57" height="213.573" fill="white" transform="translate(0.214996 0.713867)"/>
</clipPath>
</defs>
</svg>
