<svg width="294" height="252" viewBox="0 0 294 252" fill="none" xmlns="http://www.w3.org/2000/svg">
<g clip-path="url(#clip0_2471_28009)">
<path d="M94.2191 34.7299C91.8698 22.1568 95.5684 7.85271 105.848 0.242188C105.266 14.1395 109.618 27.795 118.134 38.7925C121.434 43.0219 125.544 47.3825 125.417 52.7453C125.337 56.0822 123.533 59.1909 121.154 61.5328C118.776 63.8748 115.846 65.5633 112.952 67.2255L112.501 67.9264C104.016 58.3555 96.5683 47.3031 94.2191 34.7299Z" fill="#F0F0F0"/>
<path d="M106.036 0.434929C101.717 10.101 100.553 20.8822 102.711 31.2472C103.135 33.4867 103.91 35.6454 105.007 37.6436C106.139 39.5556 107.762 41.1297 109.707 42.2023C111.501 43.2389 113.456 44.0915 114.967 45.5462C115.73 46.3022 116.323 47.2109 116.71 48.2126C117.096 49.2143 117.267 50.2863 117.21 51.3585C117.137 54.0336 116.108 56.5232 115.017 58.9228C113.806 61.5871 112.505 64.3354 112.584 67.3308C112.593 67.6937 112.029 67.6873 112.02 67.3249C111.883 62.1133 115.651 57.9279 116.49 52.9271C116.882 50.5937 116.573 48.1281 114.933 46.3194C113.498 44.7377 111.483 43.8568 109.657 42.8229C107.744 41.8043 106.109 40.3327 104.896 38.5367C103.7 36.6007 102.843 34.4756 102.361 32.2521C101.196 27.2638 100.822 22.1232 101.254 17.0187C101.714 11.1903 103.168 5.48351 105.552 0.145312C105.7 -0.185028 106.183 0.106749 106.036 0.434929Z" fill="white"/>
<path d="M101.819 27.9511C100.031 28.077 98.2566 27.5631 96.8124 26.5013C95.3681 25.4395 94.3484 23.8989 93.9352 22.1546C93.8528 21.8014 94.3978 21.6567 94.4803 22.0104C94.8621 23.6354 95.8121 25.0704 97.159 26.0564C98.5059 27.0425 100.161 27.5145 101.825 27.3875C102.187 27.3603 102.179 27.9241 101.819 27.9511Z" fill="white"/>
<path d="M108.729 41.7973C111.156 39.0523 112.46 35.4932 112.38 31.8297C112.371 31.4667 112.935 31.473 112.943 31.8356C113.02 35.6481 111.655 39.3491 109.123 42.2001C108.881 42.4716 108.488 42.0674 108.729 41.7973Z" fill="white"/>
<path d="M102.374 11.5398C103.076 11.6352 103.791 11.5549 104.454 11.3058C105.117 11.0568 105.709 10.6469 106.174 10.113C106.412 9.83851 106.805 10.2431 106.569 10.5158C106.051 11.1033 105.398 11.5551 104.666 11.8319C103.934 12.1087 103.145 12.2019 102.368 12.1035C102.294 12.1003 102.224 12.0691 102.172 12.0162C102.121 11.9633 102.091 11.8927 102.089 11.8187C102.09 11.744 102.121 11.6729 102.174 11.6206C102.228 11.5684 102.299 11.5394 102.374 11.5398Z" fill="white"/>
<path d="M147.888 10.6431C147.744 10.8187 147.6 10.9943 147.458 11.1746C145.538 13.5458 143.813 16.0691 142.302 18.7196C142.182 18.9226 142.063 19.1302 141.949 19.3363C138.376 25.7607 136.026 32.7928 135.019 40.0749C134.622 42.9731 134.445 45.8972 134.491 48.8222C134.554 52.8616 134.944 57.2364 133.706 60.9515C133.581 61.3406 133.433 61.7215 133.261 62.0922L113.391 68.4227C113.339 68.4145 113.288 68.4108 113.235 68.4026L112.453 68.6916C112.44 68.5409 112.43 68.3844 112.417 68.2337C112.41 68.1463 112.406 68.0575 112.398 67.9701C112.394 67.9114 112.391 67.8526 112.384 67.7999C112.383 67.7804 112.382 67.7607 112.382 67.7457C112.375 67.693 112.374 67.6433 112.369 67.595C112.31 66.7201 112.255 65.8436 112.21 64.9643C112.208 64.9597 112.208 64.9597 112.211 64.9538C111.87 58.2564 112.085 51.4716 113.323 44.9352C113.361 44.7386 113.396 44.5375 113.443 44.3379C114.017 41.3947 114.831 38.5034 115.876 35.6928C116.454 34.1556 117.109 32.6487 117.838 31.1778C119.731 27.3807 122.21 23.905 125.183 20.8782C131.11 14.845 138.902 10.7748 147.25 10.6466C147.464 10.6435 147.673 10.6417 147.888 10.6431Z" fill="#F0F0F0"/>
<path d="M147.924 10.9093C138.656 16.0268 131.236 23.9344 126.718 33.5091C125.708 35.553 125.028 37.7433 124.7 39.9992C124.453 42.207 124.801 44.4409 125.708 46.4687C126.517 48.3765 127.564 50.2344 127.895 52.3054C128.048 53.368 127.975 54.4511 127.681 55.4835C127.386 56.516 126.877 57.4745 126.186 58.2963C124.518 60.3887 122.197 61.7568 119.881 63.0159C117.31 64.4138 114.616 65.8251 112.876 68.2641C112.665 68.5596 112.219 68.215 112.429 67.92C115.458 63.6765 120.986 62.6031 124.667 59.1158C126.385 57.4885 127.623 55.3338 127.402 52.9019C127.209 50.7754 126.13 48.8586 125.295 46.934C124.38 44.9688 123.961 42.8095 124.073 40.6449C124.285 38.3796 124.88 36.1668 125.834 34.1012C127.907 29.4166 130.703 25.0871 134.121 21.2713C137.997 16.8946 142.594 13.2134 147.712 10.3868C148.029 10.212 148.239 10.7356 147.924 10.9093Z" fill="white"/>
<path d="M127.991 30.3404C126.487 29.3643 125.38 27.8855 124.866 26.1682C124.352 24.4508 124.465 22.6067 125.186 20.9652C125.332 20.6336 125.855 20.8463 125.708 21.1783C125.034 22.7057 124.929 24.4235 125.41 26.0217C125.892 27.6199 126.929 28.9932 128.335 29.8938C128.64 30.0899 128.294 30.5353 127.991 30.3404Z" fill="white"/>
<path d="M125.171 45.5546C128.762 44.8244 131.946 42.7675 134.088 39.7942C134.299 39.4994 134.746 39.8439 134.534 40.1383C132.3 43.2282 128.982 45.362 125.244 46.1137C124.887 46.1851 124.817 45.6256 125.171 45.5546Z" fill="white"/>
<path d="M138.314 17.5717C138.817 18.0706 139.436 18.4368 140.115 18.6373C140.795 18.8378 141.514 18.8664 142.207 18.7205C142.562 18.6446 142.632 19.2042 142.279 19.2795C141.513 19.4372 140.719 19.4046 139.968 19.1847C139.216 18.9649 138.531 18.5644 137.97 18.0182C137.913 17.9712 137.875 17.9041 137.866 17.8307C137.856 17.7573 137.875 17.683 137.919 17.6229C137.964 17.564 138.032 17.5256 138.106 17.516C138.18 17.5064 138.254 17.5265 138.314 17.5717Z" fill="white"/>
<path d="M207.638 95.3119C207.691 95.5424 207.725 95.7767 207.741 96.0126L226.092 106.599L230.552 104.032L235.308 110.257L227.853 115.57C227.251 115.999 226.525 116.222 225.786 116.204C225.047 116.186 224.333 115.928 223.753 115.47L204.829 100.541C203.975 100.858 203.045 100.906 202.163 100.681C201.28 100.455 200.488 99.9669 199.89 99.28C199.292 98.5931 198.917 97.7404 198.816 96.8354C198.715 95.9305 198.891 95.0161 199.322 94.2138C199.753 93.4116 200.418 92.7596 201.228 92.3445C202.039 91.9294 202.957 91.7709 203.859 91.8902C204.762 92.0094 205.607 92.4006 206.282 93.0118C206.957 93.6231 207.43 94.4253 207.638 95.3119Z" fill="#FFB6B6"/>
<path d="M226.347 105.431C226.405 105.161 226.521 104.906 226.686 104.685C226.852 104.464 227.063 104.281 227.306 104.149L235.778 99.5327C236.906 98.6811 238.326 98.3117 239.726 98.5055C241.127 98.6994 242.393 99.4406 243.247 100.567C244.102 101.693 244.475 103.112 244.285 104.512C244.094 105.913 243.357 107.181 242.233 108.039L235.442 114.937C235.248 115.134 235.014 115.287 234.756 115.385C234.498 115.483 234.222 115.525 233.946 115.507C233.67 115.488 233.402 115.411 233.159 115.28C232.916 115.149 232.704 114.966 232.537 114.746L226.691 106.994C226.525 106.774 226.408 106.52 226.348 106.25C226.289 105.98 226.288 105.701 226.347 105.431Z" fill="#3F3D56"/>
<path d="M241.1 78.9682C242.319 75.0832 245.091 71.5201 248.925 70.2067C252.759 68.8934 258.373 70.894 261.255 73.7666C266.527 79.021 266.69 85.4534 263.067 91.1577C262.347 91.1195 259.861 91.0913 259.132 91.064L258.1 87.6259V91.0301C252.408 90.8542 246.483 90.9644 240.554 91.0783C240.023 87.0396 239.881 82.8532 241.1 78.9682Z" fill="#1C1F1F"/>
<path d="M239.852 241.665H234.661L232.191 221.641L239.853 221.641L239.852 241.665Z" fill="#FFB6B6"/>
<path d="M271.847 241.665H266.656L264.186 221.641L271.848 221.641L271.847 241.665Z" fill="#FFB6B6"/>
<path d="M256.689 118.68L257.865 121.739L257.63 124.798L234.608 132.771L235.75 119.386L238.338 116.328L256.689 118.68Z" fill="#FFB6B6"/>
<path d="M249.41 91.1575C253.951 91.1575 257.632 87.4763 257.632 82.9352C257.632 78.3941 253.951 74.7129 249.41 74.7129C244.868 74.7129 241.187 78.3941 241.187 82.9352C241.187 87.4763 244.868 91.1575 249.41 91.1575Z" fill="#FFB7B7"/>
<path d="M261.843 132.713V137.939C261.843 137.939 267.96 145.887 264.666 152.004L274.103 233.406H264.222L247.728 164.708L240.697 231.995H232.227L231.218 178.48C230.952 164.404 233.302 150.401 238.148 137.183L261.843 132.713Z" fill="#1C1F1F"/>
<path d="M243.76 72.2282C245.34 71.265 247.149 70.744 248.999 70.7196C250.85 70.6953 252.672 71.1684 254.277 72.0895C255.882 73.0107 257.21 74.3461 258.121 75.956C259.033 77.566 259.496 79.3914 259.461 81.2413C254.865 81.4527 250.037 81.5077 245.141 81.5172L243.984 78.6856L243.302 81.5193C241.811 81.5192 240.316 81.5172 238.819 81.5134C238.758 79.6687 239.182 77.8402 240.049 76.2108C240.916 74.5813 242.196 73.2081 243.76 72.2282Z" fill="#1C1F1F"/>
<path d="M242.174 251.521H238.491L237.833 248.043L236.149 251.521H226.379C225.911 251.521 225.455 251.372 225.077 251.094C224.7 250.817 224.422 250.426 224.282 249.979C224.143 249.531 224.15 249.052 224.303 248.609C224.455 248.166 224.746 247.784 225.131 247.518L232.933 242.129V238.613L241.14 239.103L242.174 251.521Z" fill="#1C1F1F"/>
<path d="M274.64 251.521H270.956L270.299 248.043L268.615 251.521H258.845C258.376 251.521 257.92 251.372 257.543 251.094C257.166 250.817 256.887 250.426 256.748 249.979C256.608 249.531 256.616 249.052 256.768 248.609C256.921 248.166 257.211 247.784 257.597 247.518L265.399 242.129V238.613L273.605 239.103L274.64 251.521Z" fill="#1C1F1F"/>
<mask id="path-22-inside-1_2471_28009" fill="white">
<path d="M265.584 149.473C266.041 143.193 265.57 136.879 264.186 130.736C262.44 122.984 260.221 113.119 260.178 112.864C260.177 112.859 260.177 112.854 260.177 112.849L259.5 98.399C259.498 98.3571 259.48 98.3174 259.451 98.288C259.421 98.2585 259.381 98.2413 259.339 98.2399L254.661 98.0827C254.617 98.0812 254.576 98.063 254.546 98.0318C254.516 98.0007 254.499 97.9591 254.499 97.9158C254.499 97.5672 254.43 97.2221 254.297 96.9001C254.164 96.5781 253.968 96.2855 253.722 96.0391C253.475 95.7926 253.183 95.5971 252.861 95.4637C252.539 95.3304 252.194 95.2617 251.845 95.2617H242.501C241.896 95.262 241.312 95.4831 240.858 95.8836C240.404 96.2841 240.112 96.8364 240.037 97.4369C240.032 97.4783 240.013 97.5165 239.982 97.5441C239.951 97.5716 239.91 97.5863 239.869 97.5854L236.233 97.4632C236.196 97.462 236.16 97.4727 236.131 97.4938C236.101 97.5149 236.079 97.5451 236.068 97.5799L235.815 98.3835C232.144 110.204 231.125 122.688 232.83 134.947C233.27 138.209 233.071 143.115 232.904 145.847C232.888 146.114 232.924 146.382 233.011 146.635C233.099 146.888 233.235 147.122 233.413 147.322C233.591 147.522 233.806 147.685 234.047 147.802C234.288 147.918 234.55 147.986 234.817 148.001C241.576 148.39 260.715 157.651 265.297 153.229C265.308 153.219 265.43 151.588 265.584 149.473Z"/>
</mask>
<path d="M265.584 149.473C266.041 143.193 265.57 136.879 264.186 130.736C262.44 122.984 260.221 113.119 260.178 112.864C260.177 112.859 260.177 112.854 260.177 112.849L259.5 98.399C259.498 98.3571 259.48 98.3174 259.451 98.288C259.421 98.2585 259.381 98.2413 259.339 98.2399L254.661 98.0827C254.617 98.0812 254.576 98.063 254.546 98.0318C254.516 98.0007 254.499 97.9591 254.499 97.9158C254.499 97.5672 254.43 97.2221 254.297 96.9001C254.164 96.5781 253.968 96.2855 253.722 96.0391C253.475 95.7926 253.183 95.5971 252.861 95.4637C252.539 95.3304 252.194 95.2617 251.845 95.2617H242.501C241.896 95.262 241.312 95.4831 240.858 95.8836C240.404 96.2841 240.112 96.8364 240.037 97.4369C240.032 97.4783 240.013 97.5165 239.982 97.5441C239.951 97.5716 239.91 97.5863 239.869 97.5854L236.233 97.4632C236.196 97.462 236.16 97.4727 236.131 97.4938C236.101 97.5149 236.079 97.5451 236.068 97.5799L235.815 98.3835C232.144 110.204 231.125 122.688 232.83 134.947C233.27 138.209 233.071 143.115 232.904 145.847C232.888 146.114 232.924 146.382 233.011 146.635C233.099 146.888 233.235 147.122 233.413 147.322C233.591 147.522 233.806 147.685 234.047 147.802C234.288 147.918 234.55 147.986 234.817 148.001C241.576 148.39 260.715 157.651 265.297 153.229C265.308 153.219 265.43 151.588 265.584 149.473Z" fill="#FBB03B"/>
<path d="M265.584 149.473L265.085 149.437V149.437L265.584 149.473ZM264.186 130.736L263.699 130.846V130.846L264.186 130.736ZM260.178 112.864L260.671 112.781L260.671 112.781L260.178 112.864ZM260.177 112.849L260.677 112.845L260.676 112.835L260.676 112.826L260.177 112.849ZM259.5 98.399L260 98.3756V98.3756L259.5 98.399ZM259.339 98.2399L259.356 97.7402L259.356 97.7402L259.339 98.2399ZM254.661 98.0827L254.644 98.5824L254.644 98.5824L254.661 98.0827ZM254.499 97.9158H253.999V97.9158L254.499 97.9158ZM251.845 95.2617V95.7617V95.2617ZM242.501 95.2617V94.7617L242.501 94.7617L242.501 95.2617ZM240.037 97.4369L239.54 97.3746L239.539 97.387L240.037 97.4369ZM239.869 97.5854L239.852 98.0851L239.857 98.0853L239.869 97.5854ZM236.233 97.4632L236.25 96.9635L236.249 96.9635L236.233 97.4632ZM236.068 97.5799L235.591 97.4298L235.591 97.4298L236.068 97.5799ZM235.815 98.3835L235.338 98.2334L235.337 98.2352L235.815 98.3835ZM232.83 134.947L233.326 134.88L233.325 134.878L232.83 134.947ZM232.904 145.847L233.403 145.878L233.403 145.878L232.904 145.847ZM234.817 148.001L234.845 147.502L234.845 147.502L234.817 148.001ZM265.297 153.229L264.95 152.87L264.95 152.87L265.297 153.229ZM266.083 149.509C266.543 143.18 266.069 136.817 264.674 130.627L263.699 130.846C265.072 136.941 265.539 143.205 265.085 149.437L266.083 149.509ZM264.674 130.627C263.801 126.75 262.81 122.346 262.031 118.879C261.642 117.146 261.306 115.647 261.065 114.565C260.944 114.024 260.847 113.588 260.779 113.28C260.745 113.125 260.718 113.003 260.7 112.916C260.69 112.872 260.683 112.838 260.678 112.813C260.672 112.785 260.67 112.777 260.671 112.781L259.685 112.947C259.731 113.22 261.956 123.11 263.699 130.846L264.674 130.627ZM260.671 112.781C260.675 112.803 260.676 112.825 260.677 112.845L259.677 112.853C259.677 112.883 259.679 112.915 259.685 112.947L260.671 112.781ZM260.676 112.826L260 98.3756L259.001 98.4224L259.677 112.872L260.676 112.826ZM260 98.3756C259.992 98.2082 259.921 98.0498 259.802 97.9321L259.099 98.6438C259.04 98.5851 259.005 98.506 259.001 98.4224L260 98.3756ZM259.802 97.9321C259.683 97.8144 259.523 97.7458 259.356 97.7402L259.322 98.7396C259.238 98.7368 259.159 98.7026 259.099 98.6438L259.802 97.9321ZM259.356 97.7402L254.677 97.5829L254.644 98.5824L259.322 98.7396L259.356 97.7402ZM254.677 97.5829C254.764 97.5859 254.846 97.6223 254.906 97.6843L254.187 98.3794C254.307 98.5036 254.471 98.5766 254.644 98.5824L254.677 97.5829ZM254.906 97.6843C254.965 97.7463 254.999 97.8292 254.999 97.9157L253.999 97.9158C253.999 98.0889 254.066 98.2551 254.187 98.3794L254.906 97.6843ZM254.999 97.9158C254.999 97.5016 254.918 97.0914 254.759 96.7087L253.835 97.0914C253.943 97.3528 253.999 97.6329 253.999 97.9158H254.999ZM254.759 96.7087C254.601 96.3261 254.368 95.9784 254.075 95.6855L253.368 96.3926C253.568 96.5926 253.727 96.8301 253.835 97.0914L254.759 96.7087ZM254.075 95.6855C253.782 95.3926 253.435 95.1603 253.052 95.0018L252.669 95.9257C252.931 96.0339 253.168 96.1926 253.368 96.3926L254.075 95.6855ZM253.052 95.0018C252.669 94.8433 252.259 94.7617 251.845 94.7617L251.845 95.7617C252.128 95.7617 252.408 95.8174 252.669 95.9257L253.052 95.0018ZM251.845 94.7617H242.501V95.7617H251.845V94.7617ZM242.501 94.7617C241.774 94.762 241.072 95.0276 240.527 95.5087L241.189 96.2585C241.551 95.9385 242.018 95.7619 242.501 95.7617L242.501 94.7617ZM240.527 95.5087C239.982 95.9898 239.631 96.6533 239.541 97.3746L240.533 97.4992C240.593 97.0196 240.826 96.5784 241.189 96.2585L240.527 95.5087ZM239.539 97.387C239.548 97.3029 239.587 97.2253 239.651 97.1695L240.313 97.9186C240.438 97.8078 240.517 97.6536 240.534 97.4869L239.539 97.387ZM239.651 97.1695C239.714 97.1136 239.796 97.0836 239.88 97.0855L239.857 98.0853C240.025 98.0891 240.187 98.0296 240.313 97.9186L239.651 97.1695ZM239.885 97.0857L236.25 96.9635L236.216 97.9629L239.852 98.0851L239.885 97.0857ZM236.249 96.9635C236.104 96.9586 235.961 97.0015 235.842 97.0857L236.42 97.9019C236.36 97.9439 236.289 97.9653 236.216 97.9629L236.249 96.9635ZM235.842 97.0857C235.723 97.17 235.635 97.2908 235.591 97.4298L236.545 97.7301C236.523 97.7995 236.479 97.8598 236.42 97.9019L235.842 97.0857ZM235.591 97.4298L235.338 98.2334L236.292 98.5336L236.545 97.7301L235.591 97.4298ZM235.337 98.2352C231.645 110.126 230.62 122.684 232.335 135.016L233.325 134.878C231.63 122.692 232.644 110.282 236.292 98.5318L235.337 98.2352ZM232.334 135.014C232.767 138.221 232.572 143.08 232.405 145.817L233.403 145.878C233.569 143.149 233.773 138.198 233.325 134.88L232.334 135.014ZM232.405 145.817C232.385 146.149 232.43 146.483 232.539 146.798L233.484 146.472C233.418 146.281 233.391 146.08 233.403 145.878L232.405 145.817ZM232.539 146.798C232.648 147.114 232.818 147.404 233.039 147.654L233.787 146.99C233.653 146.839 233.55 146.663 233.484 146.472L232.539 146.798ZM233.039 147.654C233.26 147.903 233.529 148.106 233.829 148.252L234.265 147.352C234.083 147.264 233.921 147.141 233.787 146.99L233.039 147.654ZM233.829 148.252C234.129 148.397 234.455 148.482 234.788 148.5L234.845 147.502C234.644 147.491 234.446 147.439 234.265 147.352L233.829 148.252ZM234.788 148.5C236.409 148.594 238.816 149.226 241.642 150.083C244.432 150.928 247.637 151.995 250.733 152.899C253.84 153.806 256.91 154.573 259.503 154.83C260.8 154.959 261.999 154.962 263.034 154.783C264.07 154.603 264.976 154.234 265.644 153.589L264.95 152.87C264.473 153.33 263.778 153.639 262.864 153.797C261.949 153.956 260.849 153.959 259.601 153.835C257.106 153.587 254.11 152.843 251.014 151.939C247.907 151.032 244.774 149.987 241.932 149.126C239.124 148.275 236.604 147.603 234.845 147.502L234.788 148.5ZM265.644 153.589C265.702 153.533 265.732 153.477 265.742 153.457C265.756 153.431 265.764 153.409 265.768 153.397C265.777 153.372 265.782 153.352 265.784 153.343C265.788 153.325 265.791 153.309 265.792 153.304C265.794 153.289 265.796 153.276 265.797 153.267C265.799 153.248 265.802 153.225 265.804 153.199C265.809 153.146 265.815 153.071 265.823 152.976C265.839 152.787 265.86 152.515 265.886 152.178C265.937 151.504 266.006 150.567 266.083 149.509L265.085 149.437C265.008 150.494 264.939 151.43 264.888 152.102C264.863 152.439 264.842 152.709 264.827 152.894C264.819 152.988 264.813 153.058 264.808 153.105C264.806 153.129 264.805 153.143 264.804 153.15C264.803 153.155 264.804 153.151 264.805 153.144C264.805 153.141 264.807 153.129 264.811 153.112C264.813 153.105 264.818 153.085 264.826 153.061C264.831 153.049 264.839 153.027 264.852 153.001C264.862 152.982 264.892 152.926 264.95 152.87L265.644 153.589Z" fill="#1C1F1F" mask="url(#path-22-inside-1_2471_28009)"/>
<path d="M228.098 95.3119C228.15 95.5424 228.184 95.7767 228.2 96.0126L246.551 106.599L251.012 104.032L255.767 110.257L248.312 115.57C247.71 115.999 246.985 116.222 246.245 116.204C245.506 116.186 244.793 115.928 244.212 115.47L225.288 100.541C224.434 100.858 223.504 100.906 222.622 100.681C221.74 100.455 220.947 99.9669 220.349 99.28C219.751 98.5931 219.377 97.7404 219.275 96.8354C219.174 95.9305 219.35 95.0161 219.781 94.2138C220.212 93.4116 220.877 92.7596 221.688 92.3445C222.498 91.9294 223.416 91.7709 224.319 91.8902C225.222 92.0094 226.067 92.4006 226.742 93.0118C227.417 93.6231 227.89 94.4253 228.098 95.3119Z" fill="#FFB6B6"/>
<path d="M246.806 105.43C246.864 105.16 246.98 104.906 247.145 104.685C247.311 104.463 247.522 104.28 247.765 104.148L256.237 99.532C257.366 98.6807 258.785 98.3117 260.185 98.5056C261.585 98.6996 262.851 99.4408 263.706 100.567C264.56 101.693 264.933 103.111 264.743 104.512C264.553 105.912 263.815 107.18 262.692 108.038L255.901 114.936C255.708 115.133 255.474 115.286 255.215 115.384C254.957 115.482 254.681 115.524 254.405 115.506C254.13 115.488 253.861 115.41 253.618 115.279C253.375 115.148 253.163 114.966 252.997 114.745L247.15 106.994C246.984 106.773 246.867 106.519 246.807 106.249C246.748 105.98 246.748 105.7 246.806 105.43Z" fill="#3F3D56"/>
<path d="M22.2866 222.996C34.1111 222.996 43.6967 213.41 43.6967 201.586C43.6967 189.761 34.1111 180.176 22.2866 180.176C10.4621 180.176 0.876434 189.761 0.876434 201.586C0.876434 213.41 10.4621 222.996 22.2866 222.996Z" fill="#F0F0F0"/>
<path d="M211.482 127.29L56.3261 198.525C54.1176 199.536 51.5983 199.63 49.3208 198.785C47.0433 197.941 45.1937 196.228 44.1778 194.022L5.88911 110.626C4.87819 108.417 4.78457 105.898 5.6288 103.62C6.47303 101.343 8.18618 99.4934 10.3924 98.4775L165.548 27.2423C167.757 26.2314 170.276 26.1378 172.554 26.982C174.831 27.8262 176.681 29.5394 177.697 31.7456L215.985 115.142C216.996 117.35 217.09 119.869 216.246 122.147C215.402 124.424 213.688 126.274 211.482 127.29Z" fill="white"/>
<path d="M12.9731 104.099C12.2564 104.429 11.6998 105.03 11.4255 105.77C11.1513 106.51 11.1817 107.328 11.5101 108.046L49.7989 191.442C50.1289 192.159 50.7298 192.715 51.4696 192.989C52.2095 193.264 53.0279 193.233 53.7454 192.905L208.902 121.67C209.618 121.34 210.175 120.739 210.449 119.999C210.723 119.259 210.693 118.441 210.364 117.723L172.076 34.327C171.746 33.6103 171.145 33.0538 170.405 32.7795C169.665 32.5053 168.847 32.5357 168.129 32.8641L12.9731 104.099Z" fill="#E4E4E4"/>
<path d="M211.482 127.29L56.3261 198.525C54.1176 199.536 51.5983 199.63 49.3208 198.785C47.0433 197.941 45.1937 196.228 44.1778 194.022L5.88911 110.626C4.87819 108.417 4.78457 105.898 5.6288 103.62C6.47303 101.343 8.18618 99.4934 10.3924 98.4775L165.548 27.2423C167.757 26.2314 170.276 26.1378 172.554 26.982C174.831 27.8262 176.681 29.5394 177.697 31.7456L215.985 115.142C216.996 117.35 217.09 119.869 216.246 122.147C215.402 124.424 213.688 126.274 211.482 127.29ZM10.7894 99.3423C8.81231 100.253 7.2771 101.91 6.52056 103.951C5.76402 105.992 5.84793 108.25 6.75388 110.229L45.0426 193.625C45.953 195.602 47.6105 197.137 49.6514 197.894C51.6923 198.65 53.95 198.566 55.9291 197.66L211.085 126.425C213.062 125.515 214.597 123.857 215.354 121.816C216.111 119.775 216.027 117.518 215.121 115.539L176.832 32.1426C175.922 30.1656 174.264 28.6304 172.223 27.8738C170.182 27.1173 167.925 27.2012 165.945 28.1071L10.7894 99.3423Z" fill="#CACACA"/>
<path d="M172.712 89.4466L49.4503 146.039C48.4575 146.493 47.3487 146.629 46.2754 146.43C45.2021 146.23 44.2165 145.705 43.4531 144.924L7.38912 107.94C6.79765 107.334 6.36045 106.594 6.11425 105.783C5.86805 104.973 5.82006 104.115 5.97431 103.282C6.12855 102.449 6.48054 101.665 7.00066 100.996C7.52078 100.327 8.19384 99.7934 8.96327 99.4388L166.931 26.6184C167.691 26.2686 168.522 26.1036 169.357 26.137C170.193 26.1705 171.009 26.4014 171.738 26.8108C172.467 27.2202 173.088 27.7965 173.552 28.4924C174.015 29.1884 174.307 29.9842 174.403 30.8148L174.425 30.8142L175.795 84.5021C175.822 85.5376 175.544 86.5583 174.996 87.4374C174.448 88.3164 173.654 89.0151 172.712 89.4466ZM167.335 27.4801L9.36147 100.303C8.7304 100.594 8.17835 101.032 7.75175 101.58C7.32515 102.129 7.03646 102.772 6.90994 103.455C6.78342 104.138 6.82278 104.842 7.02471 105.507C7.22663 106.172 7.58522 106.778 8.07033 107.276L44.1343 144.26C44.7604 144.9 45.5688 145.331 46.4492 145.495C47.3295 145.658 48.239 145.546 49.0533 145.174L172.315 88.5818C173.088 88.2279 173.739 87.6548 174.189 86.9338C174.638 86.2128 174.866 85.3756 174.844 84.5263L173.485 31.3142C173.467 30.5961 173.271 29.8938 172.914 29.2703C172.558 28.6468 172.052 28.1214 171.442 27.7415C170.833 27.3615 170.138 27.1387 169.422 27.0931C168.705 27.0475 167.988 27.1804 167.335 27.4801Z" fill="#CACACA"/>
<path d="M95.416 166.006L57.0126 183.638C56.7339 183.766 56.4327 183.838 56.1262 183.85C55.8196 183.862 55.5137 183.813 55.226 183.707C54.9383 183.6 54.6745 183.438 54.4495 183.229C54.2245 183.021 54.0428 182.77 53.9148 182.491C53.7868 182.212 53.715 181.911 53.7035 181.605C53.692 181.298 53.741 180.992 53.8478 180.705C53.9546 180.417 54.117 180.153 54.3257 179.928C54.5345 179.704 54.7855 179.522 55.0644 179.395L93.4678 161.763C94.0304 161.505 94.6723 161.481 95.2524 161.697C95.8325 161.912 96.3033 162.349 96.5615 162.911C96.8197 163.474 96.8441 164.115 96.6293 164.696C96.4145 165.276 95.9781 165.747 95.416 166.006Z" fill="white"/>
<path d="M123.511 111.512C124.17 112.944 124.541 114.492 124.601 116.068C124.662 117.643 124.411 119.215 123.864 120.694C123.317 122.173 122.483 123.529 121.411 124.686C120.34 125.842 119.05 126.776 117.617 127.434C116.185 128.092 114.636 128.461 113.06 128.52C111.485 128.579 109.913 128.327 108.435 127.778C106.957 127.229 105.601 126.394 104.446 125.322C103.29 124.249 102.358 122.959 101.701 121.525" fill="#CACACA"/>
<path d="M210.099 240.723H39.3713C36.9424 240.72 34.6137 239.754 32.8962 238.037C31.1787 236.319 30.2126 233.991 30.2099 231.562V139.796C30.2127 137.367 31.1788 135.039 32.8963 133.321C34.6138 131.604 36.9424 130.638 39.3713 130.635H210.099C212.528 130.638 214.856 131.604 216.574 133.321C218.291 135.039 219.257 137.367 219.26 139.796V231.562C219.257 233.991 218.291 236.319 216.574 238.037C214.856 239.754 212.528 240.72 210.099 240.723Z" fill="white"/>
<path d="M39.3713 136.82C38.5822 136.821 37.8257 137.135 37.2678 137.693C36.7098 138.251 36.396 139.007 36.3951 139.796V231.562C36.396 232.351 36.7098 233.108 37.2678 233.666C37.8257 234.224 38.5822 234.537 39.3713 234.538H210.099C210.888 234.537 211.644 234.224 212.202 233.666C212.76 233.108 213.074 232.351 213.075 231.562V139.796C213.074 139.007 212.76 138.251 212.202 137.693C211.644 137.135 210.888 136.821 210.099 136.82H39.3713Z" fill="#F7931E"/>
<path d="M210.099 240.723H39.3713C36.9424 240.72 34.6137 239.754 32.8962 238.037C31.1787 236.319 30.2126 233.991 30.2099 231.562V139.796C30.2127 137.367 31.1788 135.039 32.8963 133.321C34.6138 131.604 36.9424 130.638 39.3713 130.635H210.099C212.528 130.638 214.856 131.604 216.574 133.321C218.291 135.039 219.257 137.367 219.26 139.796V231.562C219.257 233.991 218.291 236.319 216.574 238.037C214.856 239.754 212.528 240.72 210.099 240.723ZM39.3713 131.586C37.1946 131.589 35.1079 132.455 33.5688 133.994C32.0297 135.533 31.1639 137.619 31.1615 139.796V231.562C31.1639 233.738 32.0297 235.825 33.5688 237.364C35.1079 238.903 37.1946 239.769 39.3713 239.771H210.099C212.275 239.769 214.362 238.903 215.901 237.364C217.44 235.825 218.306 233.738 218.308 231.562V139.796C218.306 137.619 217.44 135.533 215.901 133.994C214.362 132.455 212.275 131.589 210.099 131.586H39.3713Z" fill="#3F3D56"/>
<path d="M190.655 190.155H55.0223C53.9306 190.153 52.8659 189.815 51.9737 189.185C51.0815 188.556 50.4052 187.667 50.0371 186.639L32.6937 137.981C32.4092 137.183 32.3205 136.329 32.435 135.489C32.5495 134.65 32.8639 133.85 33.3516 133.157C33.8394 132.465 34.4863 131.899 35.238 131.508C35.9897 131.118 36.8243 130.913 37.6715 130.912L211.616 130.645C212.452 130.643 213.276 130.84 214.022 131.219C214.767 131.598 215.412 132.149 215.903 132.825C216.395 133.501 216.72 134.284 216.85 135.11C216.981 135.936 216.914 136.781 216.656 137.576L216.675 137.584L195.519 186.947C195.112 187.9 194.434 188.711 193.569 189.282C192.704 189.852 191.691 190.155 190.655 190.155ZM211.623 131.596L37.6728 131.863C36.9779 131.864 36.2934 132.032 35.6769 132.353C35.0603 132.673 34.5297 133.137 34.1297 133.705C33.7296 134.273 33.4718 134.929 33.3779 135.618C33.284 136.306 33.3567 137.007 33.59 137.662L50.9334 186.32C51.2353 187.163 51.79 187.892 52.5218 188.408C53.2536 188.924 54.1268 189.202 55.0223 189.203H190.655C191.505 189.204 192.336 188.955 193.045 188.487C193.754 188.019 194.311 187.353 194.645 186.572L215.613 137.647C215.896 136.986 216.01 136.266 215.947 135.551C215.883 134.835 215.642 134.147 215.247 133.547C214.851 132.948 214.313 132.456 213.681 132.115C213.048 131.774 212.341 131.596 211.623 131.596Z" fill="#3F3D56"/>
<path d="M88.4645 227.48H46.207C45.5878 227.48 44.994 227.234 44.5562 226.796C44.1183 226.358 43.8724 225.764 43.8724 225.145C43.8724 224.526 44.1183 223.932 44.5562 223.494C44.994 223.057 45.5878 222.811 46.207 222.811H88.4645C89.0837 222.811 89.6775 223.057 90.1153 223.494C90.5531 223.932 90.7991 224.526 90.7991 225.145C90.7991 225.764 90.5531 226.358 90.1153 226.796C89.6775 227.234 89.0837 227.48 88.4645 227.48Z" fill="white"/>
<path d="M136.734 189.678C136.734 192.86 135.47 195.912 133.22 198.163C130.969 200.413 127.917 201.677 124.735 201.677C121.553 201.677 118.5 200.413 116.25 198.163C114 195.912 112.736 192.86 112.736 189.678" fill="#3F3D56"/>
<path d="M60.8248 51.7144C63.1897 51.7144 65.1069 49.7973 65.1069 47.4324C65.1069 45.0675 63.1897 43.1504 60.8248 43.1504C58.4599 43.1504 56.5428 45.0675 56.5428 47.4324C56.5428 49.7973 58.4599 51.7144 60.8248 51.7144Z" fill="#F0F0F0"/>
<path d="M5.15846 154.484C7.52336 154.484 9.44049 152.567 9.44049 150.202C9.44049 147.837 7.52336 145.92 5.15846 145.92C2.79356 145.92 0.876434 147.837 0.876434 150.202C0.876434 152.567 2.79356 154.484 5.15846 154.484Z" fill="#F0F0F0"/>
<path d="M219.26 74.0777C221.625 74.0777 223.542 72.1606 223.542 69.7957C223.542 67.4308 221.625 65.5137 219.26 65.5137C216.895 65.5137 214.978 67.4308 214.978 69.7957C214.978 72.1606 216.895 74.0777 219.26 74.0777Z" fill="#F0F0F0"/>
<path d="M292.557 251.522H211.059C210.908 251.522 210.764 251.462 210.658 251.356C210.552 251.25 210.492 251.105 210.492 250.955C210.492 250.805 210.552 250.661 210.658 250.555C210.764 250.448 210.908 250.389 211.059 250.389H292.557C292.707 250.389 292.851 250.449 292.957 250.555C293.062 250.661 293.122 250.805 293.122 250.955C293.122 251.105 293.062 251.249 292.957 251.355C292.851 251.461 292.707 251.521 292.557 251.522Z" fill="#CACACA"/>
</g>
<defs>
<clipPath id="clip0_2471_28009">
<rect width="292.247" height="251.522" fill="white" transform="translate(0.876434)"/>
</clipPath>
</defs>
</svg>
